<svg xmlns="http://www.w3.org/2000/svg" width="48" height="48" fill="none"><defs><clipPath id="a"><path fill="#fff" fill-opacity="0" d="M0 0h48v48H0z"/></clipPath></defs><g clip-path="url(#a)"><circle cx="24" cy="24" r="22.042" fill="#FFF"/><path fill="#79517F" fill-rule="evenodd" d="M38.58 24.35c-.4 4.74-3.46 14.03-15.02 14.03-5.38 0-8.1-1.16-10.87-3.06-3.17-2.19-5.73-6.42-5.73-10.97 0-5 7.24-7.94 15.22-7.94 4.27 0 8.74.62 12.26 2.61l-1.42 1.48s-3.43-2.28-10.84-2.28c-7.9 0-13.16 3.46-13.16 6.13 0 3.36 8.32 5.43 15.83 5.43 7.5 0 11.42-3.62 13.73-5.43Z"/><path fill="#91BE84" fill-rule="evenodd" d="M31.09 21.39c-2.99-1.67-10.73-2.35-13.46-.45-2.72 1.9-1.58 4.02-.88 4.41-1.01-.29-2.6-1.12-2.6-2.51 0-1.4 1.67-1.99 2.04-2.25-.84 0-2.07.66-3.05 1.29-1.11.7-1.9 1.66-1.46 2.6.83 1.78 4.58 3.06 7.69 3.4 3.1.34 4.79.28 4.79.28.14-1.65 1.59-5.53 6.93-6.77Z"/><path fill="#79517F" fill-rule="evenodd" d="M34.68 25.41c-.11-.54.79-2.22 2.84-4.13l5.36-5.38c1.16-1-.66-3.11-2.41-1.79-1.76 1.32-4.19 4.93-6.2 6.97-.5.54-.98.89-2.52 1.24-1.53.34-2.89.9-4.17 2.21-1.27 1.32-1.88 2.73-1.88 3.57 1.87.02 6.21-.76 8.98-2.69Z"/></g></svg>